# xmcd CD database file
#
# Track frame offsets:
#	150
#	11202
#	23632
#	34830
#	50147
#	65235
#	84825
#	99155
#	109965
#	121947
#
# Disc length: 1850 seconds
#
# Revision: 0
# Processed by: cddbd v1.5PL3 Copyright (c) Steve Scherf et al.
# Submitted via: CDex 1.51
#
DISCID=7f07380a
DTITLE=Kenny Rogers - Double
DYEAR=1900
DGENRE=Country
TTITLE0=Elvira
TTITLE1=Reuben James
TTITLE2=Always leaving always gone
TTITLE3=For the good times
TTITLE4=All God'e lonely children
TTITLE5=Lay it down
TTITLE6=Sunshine
TTITLE7=Homeade lie
TTITLE8=What am I gonna do
TTITLE9=Good lady of Toronto
EXTD=
EXTT0=
EXTT1=
EXTT2=
EXTT3=
EXTT4=
EXTT5=
EXTT6=
EXTT7=
EXTT8=
EXTT9=
PLAYORDER=
